<?xml version="1.0" encoding="UTF-8" standalone="no"?>
<!DOCTYPE svg PUBLIC "-//W3C//DTD SVG 1.1//EN"
 "http://www.w3.org/Graphics/SVG/1.1/DTD/svg11.dtd">
<!-- Generated by graphviz version 2.30.1 (20200930.0103)
 -->
<!-- Title: snakemake_dag Pages: 1 -->
<svg width="490pt" height="194pt"
 viewBox="0.00 0.00 490.00 194.00" xmlns="http://www.w3.org/2000/svg" xmlns:xlink="http://www.w3.org/1999/xlink">
<g id="graph0" class="graph" transform="scale(1 1) rotate(0) translate(4 190)">
<title>snakemake_dag</title>
<polygon fill="white" stroke="white" points="-4,5 -4,-190 487,-190 487,5 -4,5"/>
<!-- 0 -->
<g id="node1" class="node"><title>0</title>
<path fill="none" stroke="#d85656" stroke-width="2" stroke-dasharray="5,2" d="M203,-36C203,-36 173,-36 173,-36 167,-36 161,-30 161,-24 161,-24 161,-12 161,-12 161,-6 167,-0 173,-0 173,-0 203,-0 203,-0 209,-0 215,-6 215,-12 215,-12 215,-24 215,-24 215,-30 209,-36 203,-36"/>
<text text-anchor="middle" x="188" y="-15.5" font-family="sans" font-size="10.00">all</text>
</g>
<!-- 1 -->
<g id="node2" class="node"><title>1</title>
<path fill="none" stroke="#d6d856" stroke-width="2" stroke-dasharray="5,2" d="M68,-108C68,-108 12,-108 12,-108 6,-108 0,-102 0,-96 0,-96 0,-84 0,-84 0,-78 6,-72 12,-72 12,-72 68,-72 68,-72 74,-72 80,-78 80,-84 80,-84 80,-96 80,-96 80,-102 74,-108 68,-108"/>
<text text-anchor="middle" x="40" y="-93" font-family="sans" font-size="10.00">obs_analysis</text>
<text text-anchor="middle" x="40" y="-82" font-family="sans" font-size="10.00">trait: HF</text>
</g>
<!-- 1&#45;&gt;0 -->
<g id="edge1" class="edge"><title>1&#45;&gt;0</title>
<path fill="none" stroke="grey" stroke-width="2" d="M76.2049,-71.8761C99.2203,-60.9904 128.903,-46.9511 151.899,-36.0749"/>
<polygon fill="grey" stroke="grey" points="153.444,-39.2157 160.988,-31.7761 150.451,-32.8878 153.444,-39.2157"/>
</g>
<!-- 2 -->
<g id="node3" class="node"><title>2</title>
<path fill="none" stroke="#d6d856" stroke-width="2" stroke-dasharray="5,2" d="M166,-108C166,-108 110,-108 110,-108 104,-108 98,-102 98,-96 98,-96 98,-84 98,-84 98,-78 104,-72 110,-72 110,-72 166,-72 166,-72 172,-72 178,-78 178,-84 178,-84 178,-96 178,-96 178,-102 172,-108 166,-108"/>
<text text-anchor="middle" x="138" y="-93" font-family="sans" font-size="10.00">obs_analysis</text>
<text text-anchor="middle" x="138" y="-82" font-family="sans" font-size="10.00">trait: HF2</text>
</g>
<!-- 2&#45;&gt;0 -->
<g id="edge2" class="edge"><title>2&#45;&gt;0</title>
<path fill="none" stroke="grey" stroke-width="2" d="M150.36,-71.6966C156.233,-63.4741 163.369,-53.4832 169.842,-44.4207"/>
<polygon fill="grey" stroke="grey" points="172.818,-46.276 175.783,-36.1043 167.122,-42.2073 172.818,-46.276"/>
</g>
<!-- 3 -->
<g id="node4" class="node"><title>3</title>
<path fill="none" stroke="#56d8d8" stroke-width="2" stroke-dasharray="5,2" d="M270,-108C270,-108 208,-108 208,-108 202,-108 196,-102 196,-96 196,-96 196,-84 196,-84 196,-78 202,-72 208,-72 208,-72 270,-72 270,-72 276,-72 282,-78 282,-84 282,-84 282,-96 282,-96 282,-102 276,-108 270,-108"/>
<text text-anchor="middle" x="239" y="-87.5" font-family="sans" font-size="10.00">aggregate_MR</text>
</g>
<!-- 3&#45;&gt;0 -->
<g id="edge3" class="edge"><title>3&#45;&gt;0</title>
<path fill="none" stroke="grey" stroke-width="2" d="M226.393,-71.6966C220.403,-63.4741 213.124,-53.4832 206.521,-44.4207"/>
<polygon fill="grey" stroke="grey" points="209.179,-42.1257 200.462,-36.1043 203.522,-46.2477 209.179,-42.1257"/>
</g>
<!-- 4 -->
<g id="node5" class="node"><title>4</title>
<path fill="none" stroke="#59d856" stroke-width="2" stroke-dasharray="5,2" d="M369.25,-185.5C369.25,-185.5 310.75,-185.5 310.75,-185.5 304.75,-185.5 298.75,-179.5 298.75,-173.5 298.75,-173.5 298.75,-156.5 298.75,-156.5 298.75,-150.5 304.75,-144.5 310.75,-144.5 310.75,-144.5 369.25,-144.5 369.25,-144.5 375.25,-144.5 381.25,-150.5 381.25,-156.5 381.25,-156.5 381.25,-173.5 381.25,-173.5 381.25,-179.5 375.25,-185.5 369.25,-185.5"/>
<text text-anchor="middle" x="340" y="-173.5" font-family="sans" font-size="10.00">MR_analysis</text>
<text text-anchor="middle" x="340" y="-162.5" font-family="sans" font-size="10.00">protein: CD40</text>
<text text-anchor="middle" x="340" y="-151.5" font-family="sans" font-size="10.00">trait: HF</text>
</g>
<!-- 4&#45;&gt;3 -->
<g id="edge5" class="edge"><title>4&#45;&gt;3</title>
<path fill="none" stroke="grey" stroke-width="2" d="M312.934,-144.437C299.965,-135.064 284.348,-123.776 270.815,-113.995"/>
<polygon fill="grey" stroke="grey" points="272.855,-111.151 262.7,-108.13 268.754,-116.824 272.855,-111.151"/>
</g>
<!-- 8 -->
<g id="node9" class="node"><title>8</title>
<path fill="none" stroke="#56d8d8" stroke-width="2" stroke-dasharray="5,2" d="M374,-108C374,-108 312,-108 312,-108 306,-108 300,-102 300,-96 300,-96 300,-84 300,-84 300,-78 306,-72 312,-72 312,-72 374,-72 374,-72 380,-72 386,-78 386,-84 386,-84 386,-96 386,-96 386,-102 380,-108 374,-108"/>
<text text-anchor="middle" x="343" y="-87.5" font-family="sans" font-size="10.00">aggregate_MR</text>
</g>
<!-- 4&#45;&gt;8 -->
<g id="edge9" class="edge"><title>4&#45;&gt;8</title>
<path fill="none" stroke="grey" stroke-width="2" d="M340.804,-144.437C341.135,-136.391 341.523,-126.933 341.881,-118.228"/>
<polygon fill="grey" stroke="grey" points="345.382,-118.265 342.296,-108.13 338.388,-117.977 345.382,-118.265"/>
</g>
<!-- 5 -->
<g id="node6" class="node"><title>5</title>
<path fill="none" stroke="#59d856" stroke-width="2" stroke-dasharray="5,2" d="M470.25,-185.5C470.25,-185.5 411.75,-185.5 411.75,-185.5 405.75,-185.5 399.75,-179.5 399.75,-173.5 399.75,-173.5 399.75,-156.5 399.75,-156.5 399.75,-150.5 405.75,-144.5 411.75,-144.5 411.75,-144.5 470.25,-144.5 470.25,-144.5 476.25,-144.5 482.25,-150.5 482.25,-156.5 482.25,-156.5 482.25,-173.5 482.25,-173.5 482.25,-179.5 476.25,-185.5 470.25,-185.5"/>
<text text-anchor="middle" x="441" y="-173.5" font-family="sans" font-size="10.00">MR_analysis</text>
<text text-anchor="middle" x="441" y="-162.5" font-family="sans" font-size="10.00">protein: CD40</text>
<text text-anchor="middle" x="441" y="-151.5" font-family="sans" font-size="10.00">trait: HF2</text>
</g>
<!-- 5&#45;&gt;3 -->
<g id="edge6" class="edge"><title>5&#45;&gt;3</title>
<path fill="none" stroke="grey" stroke-width="2" d="M399.576,-147.611C396.341,-146.375 393.12,-145.159 390,-144 357.475,-131.919 320.749,-119.012 291.661,-108.96"/>
<polygon fill="grey" stroke="grey" points="292.701,-105.617 282.106,-105.666 290.419,-112.235 292.701,-105.617"/>
</g>
<!-- 5&#45;&gt;8 -->
<g id="edge10" class="edge"><title>5&#45;&gt;8</title>
<path fill="none" stroke="grey" stroke-width="2" d="M414.738,-144.437C402.273,-135.153 387.287,-123.989 374.242,-114.272"/>
<polygon fill="grey" stroke="grey" points="376.106,-111.297 365.996,-108.13 371.925,-116.91 376.106,-111.297"/>
</g>
<!-- 6 -->
<g id="node7" class="node"><title>6</title>
<path fill="none" stroke="#59d856" stroke-width="2" stroke-dasharray="5,2" d="M172,-185.5C172,-185.5 118,-185.5 118,-185.5 112,-185.5 106,-179.5 106,-173.5 106,-173.5 106,-156.5 106,-156.5 106,-150.5 112,-144.5 118,-144.5 118,-144.5 172,-144.5 172,-144.5 178,-144.5 184,-150.5 184,-156.5 184,-156.5 184,-173.5 184,-173.5 184,-179.5 178,-185.5 172,-185.5"/>
<text text-anchor="middle" x="145" y="-173.5" font-family="sans" font-size="10.00">MR_analysis</text>
<text text-anchor="middle" x="145" y="-162.5" font-family="sans" font-size="10.00">protein: OPG</text>
<text text-anchor="middle" x="145" y="-151.5" font-family="sans" font-size="10.00">trait: HF</text>
</g>
<!-- 6&#45;&gt;3 -->
<g id="edge7" class="edge"><title>6&#45;&gt;3</title>
<path fill="none" stroke="grey" stroke-width="2" d="M170.19,-144.437C182.146,-135.153 196.521,-123.989 209.033,-114.272"/>
<polygon fill="grey" stroke="grey" points="211.191,-117.028 216.943,-108.13 206.898,-111.499 211.191,-117.028"/>
</g>
<!-- 6&#45;&gt;8 -->
<g id="edge11" class="edge"><title>6&#45;&gt;8</title>
<path fill="none" stroke="grey" stroke-width="2" d="M184.222,-147.451C187.185,-146.264 190.135,-145.102 193,-144 225.077,-131.661 261.41,-118.796 290.283,-108.83"/>
<polygon fill="grey" stroke="grey" points="291.454,-112.129 299.772,-105.567 289.177,-105.51 291.454,-112.129"/>
</g>
<!-- 7 -->
<g id="node8" class="node"><title>7</title>
<path fill="none" stroke="#59d856" stroke-width="2" stroke-dasharray="5,2" d="M268,-185.5C268,-185.5 214,-185.5 214,-185.5 208,-185.5 202,-179.5 202,-173.5 202,-173.5 202,-156.5 202,-156.5 202,-150.5 208,-144.5 214,-144.5 214,-144.5 268,-144.5 268,-144.5 274,-144.5 280,-150.5 280,-156.5 280,-156.5 280,-173.5 280,-173.5 280,-179.5 274,-185.5 268,-185.5"/>
<text text-anchor="middle" x="241" y="-173.5" font-family="sans" font-size="10.00">MR_analysis</text>
<text text-anchor="middle" x="241" y="-162.5" font-family="sans" font-size="10.00">protein: OPG</text>
<text text-anchor="middle" x="241" y="-151.5" font-family="sans" font-size="10.00">trait: HF2</text>
</g>
<!-- 7&#45;&gt;3 -->
<g id="edge8" class="edge"><title>7&#45;&gt;3</title>
<path fill="none" stroke="grey" stroke-width="2" d="M240.464,-144.437C240.244,-136.391 239.984,-126.933 239.746,-118.228"/>
<polygon fill="grey" stroke="grey" points="243.242,-118.03 239.469,-108.13 236.245,-118.222 243.242,-118.03"/>
</g>
<!-- 7&#45;&gt;8 -->
<g id="edge12" class="edge"><title>7&#45;&gt;8</title>
<path fill="none" stroke="grey" stroke-width="2" d="M268.334,-144.437C281.431,-135.064 297.203,-123.776 310.87,-113.995"/>
<polygon fill="grey" stroke="grey" points="312.97,-116.796 319.065,-108.13 308.896,-111.103 312.97,-116.796"/>
</g>
<!-- 8&#45;&gt;0 -->
<g id="edge4" class="edge"><title>8&#45;&gt;0</title>
<path fill="none" stroke="grey" stroke-width="2" d="M305.083,-71.8761C280.555,-60.7991 248.797,-46.4567 224.546,-35.5045"/>
<polygon fill="grey" stroke="grey" points="225.874,-32.2639 215.319,-31.3378 222.992,-38.6435 225.874,-32.2639"/>
</g>
</g>
</svg>
