<?xml version="1.0" encoding="UTF-8" standalone="no"?>
<!DOCTYPE svg PUBLIC "-//W3C//DTD SVG 1.1//EN"
 "http://www.w3.org/Graphics/SVG/1.1/DTD/svg11.dtd">
<!-- Generated by graphviz version 2.30.1 (20200930.0103)
 -->
<!-- Title: snakemake_dag Pages: 1 -->
<svg width="192pt" height="188pt"
 viewBox="0.00 0.00 192.00 188.00" xmlns="http://www.w3.org/2000/svg" xmlns:xlink="http://www.w3.org/1999/xlink">
<g id="graph0" class="graph" transform="scale(1 1) rotate(0) translate(4 184)">
<title>snakemake_dag</title>
<polygon fill="white" stroke="white" points="-4,5 -4,-184 189,-184 189,5 -4,5"/>
<!-- 0 -->
<g id="node1" class="node"><title>0</title>
<path fill="none" stroke="#56d8d8" stroke-width="2" d="M105,-36C105,-36 75,-36 75,-36 69,-36 63,-30 63,-24 63,-24 63,-12 63,-12 63,-6 69,-0 75,-0 75,-0 105,-0 105,-0 111,-0 117,-6 117,-12 117,-12 117,-24 117,-24 117,-30 111,-36 105,-36"/>
<text text-anchor="middle" x="90" y="-15.5" font-family="sans" font-size="10.00">all</text>
</g>
<!-- 1 -->
<g id="node2" class="node"><title>1</title>
<path fill="none" stroke="#59d856" stroke-width="2" d="M68,-108C68,-108 12,-108 12,-108 6,-108 0,-102 0,-96 0,-96 0,-84 0,-84 0,-78 6,-72 12,-72 12,-72 68,-72 68,-72 74,-72 80,-78 80,-84 80,-84 80,-96 80,-96 80,-102 74,-108 68,-108"/>
<text text-anchor="middle" x="40" y="-87.5" font-family="sans" font-size="10.00">obs_analysis</text>
</g>
<!-- 1&#45;&gt;0 -->
<g id="edge2" class="edge"><title>1&#45;&gt;0</title>
<path fill="none" stroke="grey" stroke-width="2" d="M52.3596,-71.6966C58.2328,-63.4741 65.3691,-53.4832 71.8424,-44.4207"/>
<polygon fill="grey" stroke="grey" points="74.8183,-46.276 77.7826,-36.1043 69.1221,-42.2073 74.8183,-46.276"/>
</g>
<!-- 2 -->
<g id="node3" class="node"><title>2</title>
<path fill="none" stroke="#d6d856" stroke-width="2" d="M172,-108C172,-108 110,-108 110,-108 104,-108 98,-102 98,-96 98,-96 98,-84 98,-84 98,-78 104,-72 110,-72 110,-72 172,-72 172,-72 178,-72 184,-78 184,-84 184,-84 184,-96 184,-96 184,-102 178,-108 172,-108"/>
<text text-anchor="middle" x="141" y="-87.5" font-family="sans" font-size="10.00">aggregate_MR</text>
</g>
<!-- 2&#45;&gt;0 -->
<g id="edge1" class="edge"><title>2&#45;&gt;0</title>
<path fill="none" stroke="grey" stroke-width="2" d="M128.393,-71.6966C122.403,-63.4741 115.124,-53.4832 108.521,-44.4207"/>
<polygon fill="grey" stroke="grey" points="111.179,-42.1257 102.462,-36.1043 105.522,-46.2477 111.179,-42.1257"/>
</g>
<!-- 3 -->
<g id="node4" class="node"><title>3</title>
<path fill="none" stroke="#d85656" stroke-width="2" d="M167.25,-180C167.25,-180 114.75,-180 114.75,-180 108.75,-180 102.75,-174 102.75,-168 102.75,-168 102.75,-156 102.75,-156 102.75,-150 108.75,-144 114.75,-144 114.75,-144 167.25,-144 167.25,-144 173.25,-144 179.25,-150 179.25,-156 179.25,-156 179.25,-168 179.25,-168 179.25,-174 173.25,-180 167.25,-180"/>
<text text-anchor="middle" x="141" y="-159.5" font-family="sans" font-size="10.00">MR_analysis</text>
</g>
<!-- 3&#45;&gt;2 -->
<g id="edge3" class="edge"><title>3&#45;&gt;2</title>
<path fill="none" stroke="grey" stroke-width="2" d="M141,-143.697C141,-135.983 141,-126.712 141,-118.112"/>
<polygon fill="grey" stroke="grey" points="144.5,-118.104 141,-108.104 137.5,-118.104 144.5,-118.104"/>
</g>
</g>
</svg>
